<svg width="19" height="25" viewBox="0 0 19 25" fill="none" xmlns="http://www.w3.org/2000/svg">
<path d="M3.26275 2C2.71717 2.928 2.71717 4.17333 2.71717 6.66667V10.7027C3.30075 10.6667 3.95761 10.6667 4.66468 10.6667H14.3411C15.0468 10.6667 15.7051 10.6667 16.2886 10.7027V6.66667C16.2886 4.17333 16.2886 2.928 15.7431 2C15.3857 1.39197 14.8718 0.887059 14.2529 0.536C13.3083 -7.94729e-08 12.0408 0 9.5029 0C6.96504 0 5.69747 -7.94729e-08 4.75289 0.536C4.13401 0.887059 3.62007 1.39197 3.26275 2ZM1.69931 17.3213C1.01803 17.2947 0.605454 17.204 0.323168 16.9013C-0.0799047 16.4693 -0.0269757 15.8693 0.0788817 14.668C0.153525 13.8013 0.324524 13.2173 0.712668 12.7813C1.40753 12 2.52446 12 4.75968 12H14.2461C16.4813 12 17.5983 12 18.2931 12.7813C18.6813 13.216 18.8523 13.8 18.9283 14.668C19.0328 15.868 19.0857 16.4693 18.6826 16.9013C18.4004 17.204 17.9878 17.2947 17.3065 17.3213V24C17.3065 24.2652 17.1993 24.5196 17.0084 24.7071C16.8175 24.8946 16.5586 25 16.2886 25C16.0187 25 15.7598 24.8946 15.5689 24.7071C15.378 24.5196 15.2708 24.2652 15.2708 24V17.3333H3.73503V24C3.73503 24.2652 3.62779 24.5196 3.43691 24.7071C3.24602 24.8946 2.98713 25 2.71717 25C2.44722 25 2.18832 24.8946 1.99744 24.7071C1.80655 24.5196 1.69931 24.2652 1.69931 24V17.3213Z" fill="#424242"/>
</svg>
