<svg width="54" height="78" viewBox="0 0 54 78" fill="none" xmlns="http://www.w3.org/2000/svg">
<path d="M53.3595 11.8373V62.3191C53.3595 67.9153 49.9737 73.1292 44.6718 74.9195C42.8204 75.5446 40.6994 75.7794 38.3356 75.2939C30.7223 73.7296 10.5121 68.3863 2.92932 66.3642C1.1979 65.9026 0 64.3362 0 62.5444V10.2033C0 8.66378 1.44796 7.53422 2.9417 7.91001L36.6623 16.3934C39.5539 17.121 42.6162 16.6456 45.1508 15.0763L46.4941 14.2448C47.5437 13.5949 47.2813 12.0009 46.079 11.7218L13.5578 4.16658C12.2058 3.85257 11.5203 2.34212 12.173 1.11733C12.6303 0.261065 13.6123 -0.173607 14.5536 0.0648089L51.471 9.41247C52.5817 9.69232 53.3595 10.6918 53.3595 11.8373Z" fill="#1E40AF"/>
<path d="M9.36511 31.2239L14.0847 32.3607L14.1262 26.3974L9.40655 25.2606L9.36511 31.2239Z" fill="white"/>
<path d="M7.63294 30.8067L7.67438 24.8433L2.95474 23.7065L2.91333 29.6698L7.63294 30.8067Z" fill="white"/>
<path d="M7.62207 32.4342L2.90171 31.2973L2.86029 37.2599L7.58063 38.3968L7.62207 32.4342Z" fill="white"/>
<path d="M9.35348 32.8514L9.31204 38.814L14.0324 39.9508L14.0738 33.9883L9.35348 32.8514Z" fill="white"/>
<path d="M31.8983 35.8578L36.618 36.9946L36.6594 31.0313L31.9391 29.8945L31.8983 35.8578Z" fill="white"/>
<path d="M30.1662 35.4405L30.2076 29.4772L25.488 28.3404L25.4466 34.3037L30.1662 35.4405Z" fill="white"/>
<path d="M30.1553 37.068L25.435 35.9312L25.3936 41.8938L30.1139 43.0306L30.1553 37.068Z" fill="white"/>
<path d="M31.8867 37.4853L31.8453 43.4478L36.5656 44.5847L36.6071 38.6221L31.8867 37.4853Z" fill="white"/>
<path d="M16.0982 69.3996L5.78452 74.2799L5.85503 70.668L16.2458 58.9013L16.0982 69.3996Z" fill="#1E40AF"/>
<path d="M15.7791 77.0711L5.78452 74.2799L5.80632 73.1438L15.8263 75.7387L15.7791 77.0711Z" fill="#1E40AF"/>
<path d="M5.8063 73.1438L7.32113 72.4191L17.6065 74.985L15.8263 75.7387L5.8063 73.1438Z" fill="white"/>
<path d="M17.3426 75.0685L7.31241 72.4089L7.31966 71.2728L17.3724 73.7362L17.3426 75.0685Z" fill="#1E40AF"/>
<path d="M7.31967 71.2728L8.82432 70.5284L19.1424 72.9591L17.3724 73.7362L7.31967 71.2728Z" fill="white"/>
<path d="M18.8858 72.9526L8.78869 70.556L8.76617 69.4199L18.8807 71.6195L18.8858 72.9526Z" fill="#1E40AF"/>
<path d="M8.76617 69.4199L10.2512 68.6364L20.6296 70.7959L18.8807 71.6195L8.76617 69.4199Z" fill="white"/>
<path d="M20.4275 70.7676L10.2686 68.648L10.2156 67.5134L20.3861 69.4352L20.4275 70.7676Z" fill="#1E40AF"/>
<path d="M10.2156 67.5133L11.6781 66.6898L22.1117 68.5644L20.3861 69.4352L10.2156 67.5133Z" fill="white"/>
<path d="M21.898 68.6727L11.7122 66.6869L11.6439 65.5537L21.8391 67.3411L21.898 68.6727Z" fill="#1E40AF"/>
<path d="M11.6439 65.5537L13.0955 64.7105L23.5531 66.4477L21.8391 67.3411L11.6439 65.5537Z" fill="white"/>
<path d="M23.2914 66.6774L13.1056 64.6916L13.0373 63.5584L23.2318 65.3458L23.2914 66.6774Z" fill="#1E40AF"/>
<path d="M13.0373 63.5584L14.4889 62.7152L24.9465 64.4525L23.2318 65.3458L13.0373 63.5584Z" fill="white"/>
<path d="M24.2109 65.0041L14.4889 62.7174L14.4991 45.5383L24.2211 47.8251L24.2109 65.0041Z" fill="white"/>
<path d="M26.0928 72.1915L15.7791 77.0711L15.8496 73.4592L26.2411 61.6932L26.0928 72.1915Z" fill="#1E40AF"/>
</svg>
