<svg width="52" height="46" viewBox="0 0 52 46" fill="none" xmlns="http://www.w3.org/2000/svg">
<path d="M2.66666 11.3333C2.66666 8.06667 2.66666 6.43333 3.30132 5.185C3.86068 4.08682 4.75348 3.19403 5.85166 2.63467C7.09999 2 8.73332 2 12 2C15.2667 2 16.9 2 18.1483 2.63467C19.2465 3.19403 20.1393 4.08682 20.6987 5.185C21.3333 6.43333 21.3333 8.06667 21.3333 11.3333M2.66666 11.3333V34.6667C2.66666 37.9333 2.66666 39.5667 3.30132 40.815C3.86108 41.9123 4.75384 42.8042 5.85166 43.363C7.09999 44 8.73332 44 12 44C15.2667 44 16.9 44 18.1483 43.363C19.2461 42.8042 20.1389 41.9123 20.6987 40.815C21.3333 39.5667 21.3333 37.9333 21.3333 34.6667V11.3333M2.66666 11.3333H21.3333M12 34.6667H12.021M39.489 33.955L39.51 33.9503M26 13.6667L41.1667 9M24.7143 14.292C23.886 11.1887 23.4707 9.637 23.7577 8.29067C24.0073 7.10678 24.6247 6.03206 25.5217 5.22C26.5413 4.29833 28.0883 3.883 31.1777 3.05C34.267 2.21933 35.814 1.804 37.1533 2.091C38.3345 2.34293 39.405 2.96397 40.21 3.86433C41.1293 4.88633 41.5447 6.438 42.373 9.54133L48.2857 31.708C49.114 34.8113 49.5293 36.363 49.2423 37.7093C48.9927 38.8932 48.3753 39.9679 47.4783 40.78C46.4587 41.7017 44.9117 42.117 41.8223 42.95C38.733 43.7807 37.1883 44.196 35.8467 43.909C34.6661 43.6555 33.596 43.0348 32.79 42.1357C31.8707 41.1137 31.4553 39.562 30.627 36.4587L24.7143 14.292Z" stroke="#1E40AF" stroke-width="3.5" stroke-linecap="round" stroke-linejoin="round"/>
</svg>
